HIERARCHY
ROOT Hips
{
	OFFSET 0.000000 103.266502 0.000000
	CHANNELS 6 Xposition Yposition Zposition Xrotation Yrotation Zrotation 
	JOINT Spine
	{
		OFFSET -0.002400 12.777504 0.315300
		CHANNELS 3 Xrotation Yrotation Zrotation
		JOINT Spine1
		{
			OFFSET -0.002067 5.816869 0.032633
			CHANNELS 3 Xrotation Yrotation Zrotation
			JOINT Spine1_split
			{
				OFFSET -0.002067 5.816869 0.032633
				CHANNELS 3 Xrotation Yrotation Zrotation
				JOINT Spine2
				{
					OFFSET -0.002067 5.816869 0.032633
					CHANNELS 3 Xrotation Yrotation Zrotation
					JOINT Neck
					{
						OFFSET -0.003700 21.199493 -0.826900
						CHANNELS 3 Xrotation Yrotation Zrotation
						JOINT Head
						{
							OFFSET 0.000000 20.442200 4.834800
							CHANNELS 3 Xrotation Yrotation Zrotation
							JOINT HeadTop_End
							{
								OFFSET 0.000000 34.668396 4.968400
								CHANNELS 3 Xrotation Yrotation Zrotation
								End Site
								{
									OFFSET 0.000000 0.000000 0.000000
								}
							}
						}
					}
					JOINT LeftShoulder
					{
						OFFSET 3.288150 8.794197 -1.372250
						CHANNELS 3 Xrotation Yrotation Zrotation
						JOINT LeftShoulder_split
						{
							OFFSET 3.288150 8.794197 -1.372250
							CHANNELS 3 Xrotation Yrotation Zrotation
							JOINT LeftArm
							{
								OFFSET 11.953299 -2.279007 -0.146200
								CHANNELS 3 Xrotation Yrotation Zrotation
								JOINT LeftForeArm
								{
									OFFSET 18.448900 0.000000 0.000000
									CHANNELS 3 Xrotation Yrotation Zrotation
									JOINT LeftHand
									{
										OFFSET 29.527798 0.000000 0.000000
										CHANNELS 3 Xrotation Yrotation Zrotation
										JOINT LeftHandThumb1
										{
											OFFSET 10.739754 -2.369614 9.225399
											CHANNELS 3 Xrotation Yrotation Zrotation
											JOINT LeftHandThumb2
											{
												OFFSET 4.926170 -2.844131 2.844125
												CHANNELS 3 Xrotation Yrotation Zrotation
												JOINT LeftHandThumb3
												{
													OFFSET 4.614891 -2.664413 2.664409
													CHANNELS 3 Xrotation Yrotation Zrotation
													JOINT LeftHandThumb4
													{
														OFFSET 4.432465 -2.559082 2.559083
														CHANNELS 3 Xrotation Yrotation Zrotation
														End Site
														{
															OFFSET 0.000000 0.000000 0.000000
														}
													}
												}
											}
										}
										JOINT LeftHandIndex1
										{
											OFFSET 26.467674 0.187653 6.405298
											CHANNELS 3 Xrotation Yrotation Zrotation
											JOINT LeftHandIndex2
											{
												OFFSET 8.792900 0.000000 0.000000
												CHANNELS 3 Xrotation Yrotation Zrotation
												JOINT LeftHandIndex3
												{
													OFFSET 10.075203 0.000000 0.000000
													CHANNELS 3 Xrotation Yrotation Zrotation
													End Site
													{
														OFFSET 0.000000 0.000000 0.000000
													}
												}
											}
										}
										JOINT LeftHandMiddle1
										{
											OFFSET 25.764404 0.000000 0.000000
											CHANNELS 3 Xrotation Yrotation Zrotation
											JOINT LeftHandMiddle2
											{
												OFFSET 9.393974 0.000000 0.000000
												CHANNELS 3 Xrotation Yrotation Zrotation
												JOINT LeftHandMiddle3
												{
													OFFSET 10.771950 0.000000 0.000000
													CHANNELS 3 Xrotation Yrotation Zrotation
													End Site
													{
														OFFSET 0.000000 0.000000 0.000000
													}
												}
											}
										}
										JOINT LeftHandRing1
										{
											OFFSET 24.660927 0.144547 -6.225808
											CHANNELS 3 Xrotation Yrotation Zrotation
											JOINT LeftHandRing2
											{
												OFFSET 9.393799 0.000000 0.000000
												CHANNELS 3 Xrotation Yrotation Zrotation
												JOINT LeftHandRing3
												{
													OFFSET 9.928497 0.000000 0.000000
													CHANNELS 3 Xrotation Yrotation Zrotation
													End Site
													{
														OFFSET 0.000000 0.000000 0.000000
													}
												}
											}
										}
										JOINT LeftHandPinky1
										{
											OFFSET 23.655350 0.125290 -12.815412
											CHANNELS 3 Xrotation Yrotation Zrotation
											JOINT LeftHandPinky2
											{
												OFFSET 8.425102 0.000000 0.000000
												CHANNELS 3 Xrotation Yrotation Zrotation
												JOINT LeftHandPinky3
												{
													OFFSET 8.147003 0.000000 0.000000
													CHANNELS 3 Xrotation Yrotation Zrotation
													End Site
													{
														OFFSET 0.000000 0.000000 0.000000
													}
												}
											}
										}
									}
								}
							}
						}
					}
					JOINT RightShoulder
					{
						OFFSET -3.249400 8.794197 -1.372250
						CHANNELS 3 Xrotation Yrotation Zrotation
						JOINT RightShoulder_split
						{
							OFFSET -3.249400 8.794197 -1.372250
							CHANNELS 3 Xrotation Yrotation Zrotation
							JOINT RightArm
							{
								OFFSET -11.953299 -2.279007 -0.146200
								CHANNELS 3 Xrotation Yrotation Zrotation
								JOINT RightForeArm
								{
									OFFSET -18.448900 0.000000 0.000000
									CHANNELS 3 Xrotation Yrotation Zrotation
									JOINT RightHand
									{
										OFFSET -29.527802 0.000000 0.000000
										CHANNELS 3 Xrotation Yrotation Zrotation
										JOINT RightHandThumb1
										{
											OFFSET -10.739754 -2.369614 9.225399
											CHANNELS 3 Xrotation Yrotation Zrotation
											JOINT RightHandThumb2
											{
												OFFSET -4.926170 -2.844131 2.844125
												CHANNELS 3 Xrotation Yrotation Zrotation
												JOINT RightHandThumb3
												{
													OFFSET -4.614891 -2.664413 2.664409
													CHANNELS 3 Xrotation Yrotation Zrotation
													JOINT RightHandThumb4
													{
														OFFSET -4.432465 -2.559082 2.559083
														CHANNELS 3 Xrotation Yrotation Zrotation
														End Site
														{
															OFFSET 0.000000 0.000000 0.000000
														}
													}
												}
											}
										}
										JOINT RightHandIndex1
										{
											OFFSET -26.467674 0.187653 6.405298
											CHANNELS 3 Xrotation Yrotation Zrotation
											JOINT RightHandIndex2
											{
												OFFSET -8.792900 0.000000 0.000000
												CHANNELS 3 Xrotation Yrotation Zrotation
												JOINT RightHandIndex3
												{
													OFFSET -10.075203 0.000000 0.000000
													CHANNELS 3 Xrotation Yrotation Zrotation
													End Site
													{
														OFFSET 0.000000 0.000000 0.000000
													}
												}
											}
										}
										JOINT RightHandMiddle1
										{
											OFFSET -25.764404 0.000000 0.000000
											CHANNELS 3 Xrotation Yrotation Zrotation
											JOINT RightHandMiddle2
											{
												OFFSET -9.393974 0.000000 0.000000
												CHANNELS 3 Xrotation Yrotation Zrotation
												JOINT RightHandMiddle3
												{
													OFFSET -10.771950 0.000000 0.000000
													CHANNELS 3 Xrotation Yrotation Zrotation
													End Site
													{
														OFFSET 0.000000 0.000000 0.000000
													}
												}
											}
										}
										JOINT RightHandRing1
										{
											OFFSET -24.660927 0.144547 -6.225808
											CHANNELS 3 Xrotation Yrotation Zrotation
											JOINT RightHandRing2
											{
												OFFSET -9.393799 0.000000 0.000000
												CHANNELS 3 Xrotation Yrotation Zrotation
												JOINT RightHandRing3
												{
													OFFSET -9.928497 0.000000 0.000000
													CHANNELS 3 Xrotation Yrotation Zrotation
													End Site
													{
														OFFSET 0.000000 0.000000 0.000000
													}
												}
											}
										}
										JOINT RightHandPinky1
										{
											OFFSET -23.655350 0.125290 -12.815412
											CHANNELS 3 Xrotation Yrotation Zrotation
											JOINT RightHandPinky2
											{
												OFFSET -8.425102 0.000000 0.000000
												CHANNELS 3 Xrotation Yrotation Zrotation
												JOINT RightHandPinky3
												{
													OFFSET -8.147003 0.000000 0.000000
													CHANNELS 3 Xrotation Yrotation Zrotation
													End Site
													{
														OFFSET 0.000000 0.000000 0.000000
													}
												}
											}
										}
									}
								}
							}
						}
					}
				}
			}
		}
	}
	JOINT LeftUpLeg
	{
		OFFSET 11.394100 -6.187798 -0.413800
		CHANNELS 3 Xrotation Yrotation Zrotation
		JOINT LeftLeg
		{
			OFFSET 0.430247 -32.302673 3.732800
			CHANNELS 3 Xrotation Yrotation Zrotation
			JOINT LeftFoot
			{
				OFFSET -0.430247 -48.264931 -6.423300
				CHANNELS 3 Xrotation Yrotation Zrotation
				JOINT LeftToeBase
				{
					OFFSET 4.230900 -16.068199 23.438400
					CHANNELS 3 Xrotation Yrotation Zrotation
					JOINT LeftToe_End
					{
						OFFSET 4.510700 0.695400 19.974600
						CHANNELS 3 Xrotation Yrotation Zrotation
						End Site
						{
							OFFSET 0.000000 0.000000 0.000000
						}
					}
				}
			}
		}
	}
	JOINT RightUpLeg
	{
		OFFSET -11.333700 -6.187798 -0.413800
		CHANNELS 3 Xrotation Yrotation Zrotation
		JOINT RightLeg
		{
			OFFSET -0.430392 -32.302628 3.733000
			CHANNELS 3 Xrotation Yrotation Zrotation
			JOINT RightFoot
			{
				OFFSET 0.430392 -48.264973 -6.423500
				CHANNELS 3 Xrotation Yrotation Zrotation
				JOINT RightToeBase
				{
					OFFSET -4.230900 -16.068199 23.438400
					CHANNELS 3 Xrotation Yrotation Zrotation
					JOINT RightToe_End
					{
						OFFSET -4.510700 0.695400 19.974600
						CHANNELS 3 Xrotation Yrotation Zrotation
						End Site
						{
							OFFSET 0.000000 0.000000 0.000000
						}
					}
				}
			}
		}
	}
}
MOTION
Frames: 4
Frame Time: 0.016667
-6.651512 107.985748 185.266357 19.867748 9.016190 -0.884001 -2.297655 -0.783042 0.035081 -4.594410 -1.061327 0.101277 0.000000 0.000000 0.000000 -4.594413 -1.061326 0.101277 -4.837209 3.021062 -5.623374 -32.648284 -0.269690 4.329763 0.000001 -0.000001 0.000000 10.044626 0.256263 32.051216 0.000000 0.000000 0.000000 -48.561716 -10.210825 11.799412 -38.609861 -41.548502 -5.423193 -8.226031 -2.522786 4.213888 -23.472531 9.007653 3.988085 -11.828224 8.162162 13.621976 0.000008 0.000015 0.000010 -0.000001 0.000002 0.000001 0.517233 -9.570575 -64.785492 -8.375112 -2.932946 -78.721564 0.000000 -0.000000 -0.000001 -5.938104 -5.207426 -62.769630 -4.744681 -4.396651 -66.090113 -0.000000 0.000001 0.000005 -10.844887 5.489514 -65.803880 -0.072863 -6.647469 -74.360030 -0.000001 -0.000000 -0.000001 -15.557593 3.779197 -61.887764 0.800050 -8.229592 -69.703009 -0.000001 -0.000000 0.000001 -8.323183 -24.135447 -40.312685 0.000000 0.000000 0.000000 -89.460349 26.675440 38.968241 -28.899610 50.290878 -7.128664 27.282132 -4.258681 14.891580 -17.327355 6.468818 -26.575870 3.068475 -20.322333 1.170425 0.000000 0.000001 0.000004 0.000001 0.000000 -0.000000 -7.162293 5.305825 74.913132 -5.538916 0.850727 81.608036 -0.000001 -0.000000 0.000000 -11.692883 2.849401 77.860277 -5.590890 1.103037 82.945387 0.000001 0.000000 0.000000 -13.276881 -6.839412 73.034885 -0.147260 7.076612 77.106511 -0.000002 -0.000000 0.000000 -17.725137 -11.413756 72.297634 1.238873 11.805313 72.406023 -0.000002 -0.000000 -0.000001 -26.545098 8.826759 13.569002 50.116615 18.396611 -0.605321 20.718006 -0.829344 5.601081 -6.971459 2.194356 -17.499206 -0.000001 -0.000001 0.000000 -63.271840 -26.709807 -12.484105 40.934314 1.982644 -12.881530 34.382967 1.999432 0.878817 -27.192696 3.130691 -0.101276 0.000001 0.000001 -0.000000 
-6.714520 106.098976 188.987015 17.730859 9.670598 -0.956810 -2.115420 -0.890275 -0.062702 -4.226091 -1.236037 0.160241 0.000000 0.000000 0.000000 -4.226095 -1.236038 0.160240 -3.390466 3.136788 -5.040333 -32.061396 -0.495304 4.132349 0.000001 0.000000 -0.000000 9.560694 1.178736 31.958605 0.000000 0.000000 0.000000 -47.982144 -11.494735 12.850402 -37.736177 -39.139579 -4.480681 -9.326637 -3.180890 7.039144 -23.461918 9.089804 3.969057 -11.828229 8.162144 13.621976 0.000008 0.000015 0.000010 -0.000002 -0.000002 0.000000 0.903536 -9.378176 -63.393363 -8.389072 -2.928306 -78.861200 -0.000000 -0.000000 -0.000003 -5.628302 -5.175352 -61.629999 -4.775317 -4.405096 -66.429081 -0.000000 0.000000 0.000003 -10.813713 5.370622 -64.788456 -0.084344 -6.654562 -74.482789 -0.000002 0.000000 0.000003 -15.534562 3.805857 -61.859903 0.782688 -8.240919 -69.919731 -0.000000 0.000000 0.000002 -8.892186 -24.277767 -41.378229 0.000000 0.000000 0.000000 -86.632706 27.564750 36.099408 -30.016602 48.103564 -7.287930 26.156949 -4.467103 12.106711 -17.327352 6.468832 -26.575902 3.068482 -20.322338 1.170439 -0.000003 0.000003 0.000004 -0.000001 -0.000001 -0.000000 -7.160170 4.909967 76.768854 -5.512924 0.851714 81.188533 -0.000000 -0.000000 -0.000000 -11.756441 2.716000 78.851290 -5.590526 1.102802 82.959928 0.000001 0.000000 0.000000 -13.231555 -7.033029 74.164434 -0.159615 7.085943 77.218813 -0.000002 0.000000 0.000001 -17.608899 -11.756194 74.042857 1.242289 11.802462 72.382971 0.000000 0.000000 0.000000 -25.203972 7.125419 13.206970 49.078748 20.120784 -1.925429 19.712051 -1.307803 5.212071 -9.988014 5.652496 -29.658788 -0.000000 0.000000 -0.000001 -64.565321 -26.148643 -12.640755 42.878179 1.635546 -13.213696 33.749358 1.043839 -0.405811 -26.168727 3.076744 1.053745 0.000000 0.000001 0.000000 
-6.737791 104.131905 192.540802 15.555186 10.352317 -1.059136 -1.884011 -1.015318 -0.116800 -3.758563 -1.458367 0.264352 0.000000 0.000000 0.000000 -3.758560 -1.458363 0.264352 -2.312996 3.118226 -4.492907 -31.180053 -0.574887 3.975780 0.000000 -0.000001 0.000000 9.718423 1.273661 32.721920 0.000000 0.000000 0.000000 -47.199828 -10.995447 14.448376 -37.509336 -36.402975 -3.708624 -10.609607 -4.159284 8.444637 -23.450763 9.176013 3.949045 -11.828235 8.162148 13.621988 0.000009 0.000017 0.000010 -0.000000 0.000002 0.000001 1.276597 -9.117643 -62.457067 -8.382877 -2.929999 -78.798410 0.000000 -0.000000 -0.000004 -5.280018 -5.045767 -60.690800 -4.795409 -4.410527 -66.652469 0.000001 -0.000000 -0.000001 -10.792174 5.278070 -63.907020 -0.092902 -6.659767 -74.573501 -0.000002 0.000001 0.000000 -15.475091 3.968994 -62.080641 0.761132 -8.254716 -70.188820 -0.000001 0.000000 -0.000002 -8.350552 -23.530582 -42.083203 0.000000 0.000000 0.000000 -83.150095 28.065867 30.864611 -31.664334 45.607441 -6.457777 24.627319 -4.700899 9.780973 -17.327357 6.468804 -26.575911 3.068477 -20.322326 1.170411 -0.000002 0.000005 0.000004 0.000000 -0.000001 -0.000001 -7.022631 4.477189 78.237672 -5.477268 0.852848 80.617604 -0.000000 0.000000 -0.000000 -11.748797 2.655320 79.261634 -5.590942 1.102371 83.000431 -0.000000 -0.000000 0.000000 -13.176022 -7.192357 75.017429 -0.177997 7.099714 77.385388 -0.000000 -0.000000 -0.000000 -17.476398 -12.103214 75.594013 1.245876 11.799146 72.352112 -0.000003 0.000000 0.000001 -25.130995 4.901167 12.652627 49.499679 21.318281 -3.176669 18.153029 -1.842696 4.147748 -13.897145 9.491334 -34.360834 -0.000000 0.000002 -0.000001 -65.968194 -25.588390 -12.673308 45.485016 1.157451 -13.918922 32.745006 0.098811 -1.376708 -24.566179 1.997658 2.380252 0.000000 0.000001 0.000000 
-6.751110 103.009293 195.898178 13.427181 11.038022 -1.219972 -1.578379 -1.147482 -0.082478 -3.141671 -1.730180 0.476075 0.000000 0.000000 0.000000 -3.141673 -1.730181 0.476075 -2.080885 2.816535 -4.488245 -29.703581 -0.759592 4.181480 -0.000001 -0.000000 -0.000000 10.358789 0.430483 33.938664 0.000000 0.000000 0.000000 -46.303051 -6.882813 15.495946 -38.881863 -37.359516 -3.729823 -11.776471 -3.759839 8.715735 -23.439380 9.263846 3.928523 -11.828224 8.162103 13.621965 0.000009 0.000017 0.000009 0.000001 -0.000000 0.000001 1.545914 -8.908091 -61.901082 -8.376379 -2.931808 -78.732711 -0.000000 0.000000 0.000001 -5.021040 -4.932627 -60.084798 -4.812815 -4.415218 -66.846897 0.000001 0.000000 0.000002 -10.776110 5.182479 -63.138979 -0.100357 -6.664260 -74.651324 -0.000001 0.000001 0.000001 -15.429570 4.090056 -62.244491 0.743170 -8.265975 -70.408506 0.000002 0.000001 -0.000001 -7.764613 -22.718983 -42.791125 0.000000 0.000000 0.000000 -79.909757 26.708352 26.192527 -32.094683 45.832806 -5.888949 22.708557 -5.865438 8.746421 -17.327358 6.468848 -26.575904 3.068464 -20.322268 1.170434 -0.000002 0.000001 0.000003 -0.000002 -0.000000 -0.000000 -6.865589 4.152964 79.210312 -5.445873 0.853617 80.114731 0.000000 0.000000 0.000001 -11.662136 2.647373 79.130036 -5.594059 1.101180 83.123990 -0.000001 0.000000 -0.000000 -13.125742 -7.256932 75.195014 -0.202096 7.117645 77.603428 -0.000000 0.000001 0.000001 -17.379300 -12.303799 76.241447 1.231289 11.811457 72.469379 -0.000001 -0.000001 0.000003 -25.735207 4.314948 11.721358 48.590171 20.936789 -2.943822 16.919758 -2.238555 3.065461 -23.418384 12.662624 -27.088126 -0.000000 -0.000003 0.000001 -65.715982 -25.460739 -12.847895 45.918737 0.509835 -13.793533 32.241952 -0.166276 -2.987254 -22.599960 0.194300 3.833937 0.000000 0.000000 -0.000000 
